<svg width="18" height="18" viewBox="0 0 18 18" fill="none" xmlns="http://www.w3.org/2000/svg">
<path d="M9 3C7.13623 3 6.20435 3 5.46927 3.30448C4.48915 3.71046 3.71046 4.48915 3.30448 5.46927C3 6.20435 3 7.13623 3 9V13C3 13.9428 3 14.4142 3.29289 14.7071C3.58579 15 4.05719 15 5 15H9C10.8638 15 11.7956 15 12.5307 14.6955C13.5108 14.2895 14.2895 13.5108 14.6955 12.5307C15 11.7956 15 10.8638 15 9" stroke="#F2F2F7" stroke-width="2"/>
<path d="M6.75 7.5L11.25 7.5" stroke="#F2F2F7" stroke-width="2" stroke-linecap="round" stroke-linejoin="round"/>
<path d="M6.75 10.5H9" stroke="#F2F2F7" stroke-width="2" stroke-linecap="round" stroke-linejoin="round"/>
<path d="M14.25 6L14.25 1.5M12 3.75H16.5" stroke="#F2F2F7" stroke-width="2" stroke-linecap="round" stroke-linejoin="round"/>
</svg>
