<svg width="44" height="37" viewBox="0 0 44 37" fill="none" xmlns="http://www.w3.org/2000/svg">
<g filter="url(#filter0_d_4_6)">
<path d="M23.2432 2.5V1V2.5ZM24.7813 2.74902L25.7714 1.62221L25.7714 1.62217L24.7813 2.74902ZM25.2266 4.24219L26.7144 4.05074L26.7141 4.04913L25.2266 4.24219ZM25.2735 4.60645L23.7858 4.7979L23.786 4.7995L25.2735 4.60645ZM26.0401 6.93262L25.4004 8.28939L25.4011 8.28969L26.0401 6.93262ZM28.3223 6.04199L29.1211 7.31162L29.1211 7.31161L28.3223 6.04199ZM29.7628 5.13574L28.964 3.86612L28.964 3.86612L29.7628 5.13574ZM30.9317 4.6123L31.0023 3.11397L31.0014 3.11393L30.9317 4.6123ZM32.0469 5.24316L31.1324 6.4321L31.1325 6.43217L32.0469 5.24316ZM33.9376 6.69727L34.8521 5.50833L34.852 5.50826L33.9376 6.69727ZM34.9542 7.71582L36.3902 7.28254L36.3901 7.28201L34.9542 7.71582ZM34.9786 8.19824L36.4503 8.48835L36.4504 8.48783L34.9786 8.19824ZM34.0665 9.31152L35.0938 10.4045L34.0665 9.31152ZM32.5655 11.1689L31.0656 11.189L31.0656 11.1895L32.5655 11.1689ZM32.7774 11.7715L31.5957 12.6954L31.596 12.6958L32.7774 11.7715ZM35.1114 12.2773L34.9962 13.7729L34.9965 13.7729L35.1114 12.2773ZM36.1534 12.3574L36.2686 10.8619L36.2683 10.8618L36.1534 12.3574ZM37.7335 12.7461L38.8341 11.727L38.8334 11.7262L37.7335 12.7461ZM38.0001 14.3516H39.5001H38.0001ZM37.7335 17.2529L38.834 18.2721L38.8342 18.2719L37.7335 17.2529ZM36.1534 17.6416L36.0384 16.146L36.0382 16.146L36.1534 17.6416ZM35.1133 17.7217L35.2284 19.2173L35.2285 19.2173L35.1133 17.7217ZM32.7794 18.2275L31.5982 17.3029L31.5979 17.3033L32.7794 18.2275ZM32.5674 18.8301L31.0676 18.8094L31.0676 18.8096L32.5674 18.8301ZM34.0684 20.6875L35.0959 19.5946V19.5946L34.0684 20.6875ZM34.9796 21.8008L36.4513 21.5111L36.4513 21.5108L34.9796 21.8008ZM34.9551 22.2832L36.391 22.7171L36.3911 22.7167L34.9551 22.2832ZM33.9385 23.3018L33.0239 22.1129L33.0237 22.1131L33.9385 23.3018ZM32.0479 24.7568L32.9625 25.9457L32.9628 25.9455L32.0479 24.7568ZM30.9317 25.3877L31.0012 26.8861L31.0021 26.886L30.9317 25.3877ZM29.7628 24.8643L28.9634 26.1335L28.9637 26.1337L29.7628 24.8643ZM28.3223 23.957L29.1217 22.6878L29.1214 22.6876L28.3223 23.957ZM26.0411 23.0664L25.4023 21.7092L25.402 21.7094L26.0411 23.0664ZM25.2735 25.3926L23.786 25.1993L23.7857 25.2016L25.2735 25.3926ZM25.2266 25.7578L26.7141 25.9511L26.7144 25.9488L25.2266 25.7578ZM24.7813 27.251L25.7713 28.3779L25.7713 28.3779L24.7813 27.251ZM23.2432 27.5V29V27.5ZM18.7188 27.251L17.729 28.378L17.729 28.378L18.7188 27.251ZM18.2735 25.7578L19.761 25.5642L19.7609 25.5635L18.2735 25.7578ZM18.2256 25.3916L16.7382 25.5852L16.7383 25.5859L18.2256 25.3916ZM17.4581 23.0664L18.0968 21.7092L18.0966 21.7091L17.4581 23.0664ZM15.1768 23.957L14.3777 22.6876L14.3776 22.6877L15.1768 23.957ZM13.7374 24.8633L14.5365 26.1327L14.5365 26.1327L13.7374 24.8633ZM12.5684 25.3877L12.4982 26.886L12.4991 26.8861L12.5684 25.3877ZM11.4522 24.7568L10.5377 25.9458L10.5378 25.9459L11.4522 24.7568ZM9.56158 23.3027L10.4761 22.1137L10.476 22.1137L9.56158 23.3027ZM8.54498 22.2832L7.10875 22.7159L7.10883 22.7162L8.54498 22.2832ZM8.52057 21.8027L7.04863 21.514L7.04852 21.5145L8.52057 21.8027ZM9.43268 20.6875L10.4603 21.7802L9.43268 20.6875ZM10.9337 18.8291L12.4335 18.8082L12.4335 18.8075L10.9337 18.8291ZM10.7217 18.2275L11.9036 17.3039L11.9033 17.3035L10.7217 18.2275ZM8.3858 17.7217L8.27054 19.2172L8.27102 19.2173L8.3858 17.7217ZM7.34674 17.6416L7.462 16.146L7.46152 16.146L7.34674 17.6416ZM5.76666 17.2529L4.66603 18.272L4.66617 18.2722L5.76666 17.2529ZM5.50006 14.3516H4.00006H5.50006ZM5.76666 12.7461L4.66676 11.7262L4.66602 11.727L5.76666 12.7461ZM7.34674 12.3574L7.2317 10.8618L7.23153 10.8619L7.34674 12.3574ZM8.38776 12.2773L8.5028 13.7729L8.50297 13.7729L8.38776 12.2773ZM10.7217 11.7715L11.9032 12.6957L11.9032 12.6956L10.7217 11.7715ZM10.9337 11.1689L12.4335 11.1898L12.4335 11.1887L10.9337 11.1689ZM9.43268 9.31152L8.40523 10.4044L9.43268 9.31152ZM8.52155 8.19824L7.04972 8.48762L7.04991 8.48859L8.52155 8.19824ZM8.54498 7.71582L7.10896 7.28241L7.10885 7.28277L8.54498 7.71582ZM9.56256 6.69727L10.4773 7.88608L10.4773 7.88604L9.56256 6.69727ZM11.4522 5.24316L10.5375 4.05435L10.5374 4.05439L11.4522 5.24316ZM12.5684 4.61133L12.4987 3.11295L12.4979 3.11299L12.5684 4.61133ZM13.7374 5.13477L14.5365 3.86539L14.5364 3.86527L13.7374 5.13477ZM15.1768 6.04102L14.3776 7.31039L14.3778 7.31051L15.1768 6.04102ZM17.4581 6.93262L18.0962 8.29012L18.0967 8.28987L17.4581 6.93262ZM18.2256 4.60645L16.7384 4.41107L16.7382 4.41281L18.2256 4.60645ZM18.2735 4.24219L19.7607 4.43756L19.7609 4.43583L18.2735 4.24219ZM18.7188 2.74902L17.729 1.62194L17.729 1.62198L18.7188 2.74902ZM21.7501 10V8.5V8.5V10ZM21.7501 20V21.5V21.5V20ZM23.2432 2.5V4C23.4576 4 23.6209 4.00011 23.7604 4.00349C23.9002 4.00688 23.9817 4.01301 24.0303 4.0192C24.0774 4.02522 24.0587 4.02722 24.0063 4.00731C23.9441 3.98368 23.8655 3.94109 23.7913 3.87587L24.7813 2.74902L25.7714 1.62217C25.3193 1.22498 24.8129 1.09468 24.4095 1.04327C24.0483 0.997239 23.6225 1 23.2432 1V2.5ZM24.7813 2.74902L23.7912 3.87583C23.7172 3.81078 23.6649 3.7385 23.6336 3.68003C23.6071 3.63076 23.6067 3.61194 23.6187 3.65789C23.6311 3.70521 23.6477 3.78514 23.6691 3.92324C23.6904 4.0609 23.7115 4.22283 23.7391 4.43524L25.2266 4.24219L26.7141 4.04913C26.6653 3.67265 26.6131 3.25005 26.5208 2.89754C26.4177 2.50401 26.2231 2.01906 25.7714 1.62221L24.7813 2.74902ZM25.2266 4.24219L23.7389 4.43364L23.7858 4.7979L25.2735 4.60645L26.7612 4.41499L26.7144 4.05074L25.2266 4.24219ZM25.2735 4.60645L23.786 4.7995C23.8701 5.44759 23.9513 6.10384 24.096 6.61423C24.2476 7.14915 24.5689 7.89736 25.4004 8.28939L26.0401 6.93262L26.6798 5.57584C26.8227 5.64323 26.925 5.74578 26.9807 5.82837C27.0218 5.88924 27.0124 5.90237 26.9822 5.79606C26.9529 5.69271 26.9201 5.53618 26.8819 5.2927C26.844 5.05147 26.8071 4.76812 26.761 4.41339L25.2735 4.60645ZM26.0401 6.93262L25.4011 8.28969C26.2329 8.6814 27.0147 8.45277 27.5239 8.22892C28.0099 8.01531 28.5677 7.65981 29.1211 7.31162L28.3223 6.04199L27.5235 4.77237C27.2208 4.96285 26.9788 5.11492 26.7687 5.23933C26.5566 5.3649 26.4151 5.43931 26.3167 5.48252C26.2156 5.52698 26.2197 5.51137 26.2928 5.50425C26.392 5.4946 26.5362 5.50823 26.6791 5.57554L26.0401 6.93262ZM28.3223 6.04199L29.1211 7.31161L30.5615 6.40536L29.7628 5.13574L28.964 3.86612L27.5235 4.77237L28.3223 6.04199ZM29.7628 5.13574L30.5615 6.40537C30.708 6.31323 30.8179 6.24415 30.913 6.18714C31.0081 6.13013 31.0635 6.10038 31.0961 6.0846C31.1273 6.06956 31.1134 6.07928 31.0681 6.09085C31.0158 6.10422 30.9437 6.11448 30.862 6.11068L30.9317 4.6123L31.0014 3.11393C30.5055 3.09085 30.0993 3.23437 29.7908 3.38347C29.5162 3.51619 29.2207 3.70461 28.964 3.86612L29.7628 5.13574ZM30.9317 4.6123L30.8611 6.11064C30.7795 6.1068 30.7087 6.08985 30.6579 6.07166C30.6138 6.05591 30.601 6.04493 30.6305 6.0628C30.6615 6.08154 30.7138 6.11632 30.8031 6.18195C30.8923 6.24757 30.9953 6.32666 31.1324 6.4321L32.0469 5.24316L32.9615 4.05423C32.7208 3.86909 32.4442 3.65369 32.1829 3.49565C31.8894 3.31819 31.4983 3.13732 31.0023 3.11397L30.9317 4.6123ZM32.0469 5.24316L31.1325 6.43217L33.0231 7.88627L33.9376 6.69727L34.852 5.50826L32.9614 4.05416L32.0469 5.24316ZM33.9376 6.69727L33.023 7.8862C33.1803 8.00718 33.3023 8.10114 33.4053 8.18369C33.5087 8.26651 33.571 8.32047 33.6099 8.35734C33.6916 8.43477 33.5803 8.35499 33.5183 8.14963L34.9542 7.71582L36.3901 7.28201C36.2351 6.769 35.9235 6.41682 35.674 6.18033C35.4391 5.95757 35.1349 5.72581 34.8521 5.50833L33.9376 6.69727ZM34.9542 7.71582L33.5181 8.1491C33.4956 8.07446 33.4903 7.99231 33.5068 7.90866L34.9786 8.19824L36.4504 8.48783C36.5298 8.08383 36.507 7.66975 36.3902 7.28254L34.9542 7.71582ZM34.9786 8.19824L33.5069 7.90813C33.5487 7.69621 33.6525 7.60519 33.5783 7.69085C33.543 7.73152 33.4861 7.79144 33.3911 7.88425C33.2963 7.9768 33.184 8.08237 33.0391 8.21855L34.0665 9.31152L35.0938 10.4045C35.353 10.1609 35.6331 9.90037 35.8448 9.65628C36.0695 9.39717 36.3463 9.01559 36.4503 8.48835L34.9786 8.19824ZM34.0665 9.31152L33.0391 8.21855C32.5628 8.6663 32.1146 9.08483 31.7996 9.4513C31.5129 9.78475 31.0548 10.3808 31.0656 11.189L32.5655 11.1689L34.0654 11.1489C34.0679 11.3411 34.0112 11.4707 33.9914 11.5092C33.9777 11.5361 33.9878 11.5079 34.0744 11.4071C34.2602 11.191 34.5654 10.9011 35.0938 10.4045L34.0665 9.31152ZM32.5655 11.1689L31.0656 11.1895C31.0731 11.7344 31.2583 12.2639 31.5957 12.6954L32.7774 11.7715L33.9591 10.8476C34.0273 10.9347 34.0639 11.0405 34.0653 11.1484L32.5655 11.1689ZM32.7774 11.7715L31.596 12.6958C32.0944 13.3328 32.8258 13.5099 33.2579 13.5898C33.733 13.6777 34.3446 13.7227 34.9962 13.7729L35.1114 12.2773L35.2266 10.7818C34.5034 10.7261 34.0837 10.6917 33.8034 10.6398C33.6727 10.6157 33.6471 10.6 33.6748 10.6123C33.7144 10.63 33.8402 10.6956 33.9588 10.8472L32.7774 11.7715ZM35.1114 12.2773L34.9965 13.7729L36.0384 13.853L36.1534 12.3574L36.2683 10.8618L35.2263 10.7818L35.1114 12.2773ZM36.1534 12.3574L36.0382 13.853C36.2623 13.8703 36.4339 13.8836 36.5801 13.8985C36.7268 13.9134 36.8127 13.9267 36.8644 13.9375C36.9148 13.9481 36.8959 13.9491 36.8439 13.9239C36.7816 13.8937 36.7038 13.8418 36.6336 13.766L37.7335 12.7461L38.8334 11.7262C38.4068 11.2661 37.8912 11.0875 37.4794 11.0012C37.1093 10.9237 36.6662 10.8925 36.2686 10.8619L36.1534 12.3574ZM37.7335 12.7461L36.6328 13.7652C36.5626 13.6894 36.5167 13.6078 36.4913 13.5433C36.4701 13.4893 36.4726 13.4704 36.4792 13.5214C36.486 13.5737 36.4926 13.6603 36.4963 13.8078C36.4999 13.9546 36.5001 14.1267 36.5001 14.3516H38.0001H39.5001C39.5001 13.9527 39.5029 13.5082 39.454 13.1331C39.3995 12.7155 39.2606 12.1876 38.8341 11.727L37.7335 12.7461ZM38.0001 14.3516H36.5001V15.6475H38.0001H39.5001V14.3516H38.0001ZM38.0001 15.6475H36.5001C36.5001 15.8724 36.4999 16.0444 36.4963 16.1913C36.4926 16.3388 36.486 16.4254 36.4792 16.4776C36.4726 16.5286 36.4701 16.5097 36.4913 16.4557C36.5167 16.3911 36.5626 16.3096 36.6327 16.2339L37.7335 17.2529L38.8342 18.2719C39.2605 17.8114 39.3994 17.2837 39.454 16.866C39.5029 16.4909 39.5001 16.0465 39.5001 15.6475H38.0001ZM37.7335 17.2529L36.6329 16.2337C36.703 16.1581 36.7808 16.1059 36.8434 16.0756C36.8958 16.0502 36.915 16.0511 36.8647 16.0617C36.8132 16.0724 36.7274 16.0857 36.5806 16.1006C36.4343 16.1155 36.2627 16.1288 36.0384 16.146L36.1534 17.6416L36.2684 19.1372C36.666 19.1066 37.1094 19.0755 37.4794 18.998C37.8918 18.9117 38.4075 18.7327 38.834 18.2721L37.7335 17.2529ZM36.1534 17.6416L36.0382 16.146L34.9982 16.2261L35.1133 17.7217L35.2285 19.2173L36.2685 19.1372L36.1534 17.6416ZM35.1133 17.7217L34.9983 16.2261C34.3466 16.2762 33.735 16.3213 33.2597 16.4092C32.8275 16.4892 32.0965 16.6663 31.5982 17.3029L32.7794 18.2275L33.9605 19.1521C33.8419 19.3036 33.7163 19.3691 33.6768 19.3867C33.6492 19.399 33.6748 19.3833 33.8056 19.3591C34.0858 19.3073 34.5054 19.2729 35.2284 19.2173L35.1133 17.7217ZM32.7794 18.2275L31.5979 17.3033C31.26 17.7353 31.0751 18.2649 31.0676 18.8094L32.5674 18.8301L34.0673 18.8507C34.0658 18.9581 34.0293 19.0642 33.9608 19.1518L32.7794 18.2275ZM32.5674 18.8301L31.0676 18.8096C31.0565 19.6182 31.5151 20.2145 31.8016 20.5478C32.1166 20.9141 32.5648 21.3327 33.041 21.7804L34.0684 20.6875L35.0959 19.5946C34.5675 19.0979 34.2621 18.8079 34.0763 18.5918C33.9896 18.491 33.9795 18.4627 33.9933 18.4897C34.0131 18.5282 34.0699 18.6581 34.0673 18.8505L32.5674 18.8301ZM34.0684 20.6875L33.041 21.7804C33.1856 21.9163 33.2977 22.0218 33.3922 22.1142C33.487 22.2069 33.5438 22.2667 33.5789 22.3073C33.6527 22.3926 33.5495 22.3019 33.5079 22.0908L34.9796 21.8008L36.4513 21.5108C36.3475 20.9844 36.0716 20.6031 35.8469 20.3436C35.6352 20.0991 35.3553 19.8386 35.0959 19.5946L34.0684 20.6875ZM34.9796 21.8008L33.5078 22.0904C33.4913 22.0069 33.4966 21.9245 33.5191 21.8497L34.9551 22.2832L36.3911 22.7167C36.5081 22.3292 36.5308 21.9151 36.4513 21.5111L34.9796 21.8008ZM34.9551 22.2832L33.5193 21.8493C33.5814 21.6438 33.6926 21.5641 33.6108 21.6417C33.5719 21.6786 33.5096 21.7326 33.4062 21.8154C33.3032 21.898 33.1811 21.9919 33.0239 22.1129L33.9385 23.3018L34.8531 24.4907C35.1358 24.2732 35.44 24.0415 35.6749 23.8187C35.9242 23.5823 36.236 23.2301 36.391 22.7171L34.9551 22.2832ZM33.9385 23.3018L33.0237 22.1131L31.133 23.5681L32.0479 24.7568L32.9628 25.9455L34.8534 24.4905L33.9385 23.3018ZM32.0479 24.7568L31.1333 23.5679C30.9964 23.6733 30.8934 23.7523 30.8042 23.8178C30.715 23.8834 30.6627 23.9181 30.6317 23.9368C30.6022 23.9547 30.615 23.9438 30.6588 23.9281C30.7094 23.91 30.7799 23.8932 30.8613 23.8893L30.9317 25.3877L31.0021 26.886C31.4976 26.8628 31.8886 26.6824 32.1825 26.5049C32.4444 26.3468 32.7212 26.1314 32.9625 25.9457L32.0479 24.7568ZM30.9317 25.3877L30.8622 23.8893C30.9437 23.8855 31.0157 23.8958 31.0679 23.9091C31.1132 23.9207 31.127 23.9304 31.0959 23.9153C31.0633 23.8996 31.008 23.8699 30.913 23.8129C30.818 23.756 30.7081 23.6869 30.5618 23.5948L29.7628 24.8643L28.9637 26.1337C29.2206 26.2954 29.516 26.4838 29.7909 26.6166C30.0995 26.7657 30.5055 26.9091 31.0012 26.8861L30.9317 25.3877ZM29.7628 24.8643L30.5622 23.595L29.1217 22.6878L28.3223 23.957L27.5229 25.2263L28.9634 26.1335L29.7628 24.8643ZM28.3223 23.957L29.1214 22.6876C28.5682 22.3393 28.0106 21.9838 27.5248 21.7702C27.0153 21.5462 26.234 21.3178 25.4023 21.7092L26.0411 23.0664L26.6798 24.4236C26.5371 24.4908 26.3929 24.5045 26.2937 24.4948C26.2205 24.4877 26.2162 24.472 26.3172 24.5164C26.4154 24.5596 26.5568 24.634 26.7688 24.7595C26.9788 24.8839 27.2206 25.036 27.5233 25.2265L28.3223 23.957ZM26.0411 23.0664L25.402 21.7094C24.5704 22.101 24.2486 22.8488 24.0967 23.384C23.9517 23.8946 23.8703 24.5509 23.786 25.1993L25.2735 25.3926L26.761 25.5859C26.8071 25.2312 26.844 24.9478 26.882 24.7067C26.9204 24.4633 26.9532 24.3068 26.9825 24.2035C27.0127 24.0973 27.0221 24.1104 26.981 24.1712C26.9253 24.2538 26.823 24.3562 26.6802 24.4234L26.0411 23.0664ZM25.2735 25.3926L23.7857 25.2016L23.7388 25.5669L25.2266 25.7578L26.7144 25.9488L26.7613 25.5835L25.2735 25.3926ZM25.2266 25.7578L23.7391 25.5645C23.7115 25.777 23.6903 25.939 23.669 26.0768C23.6476 26.2149 23.631 26.2949 23.6186 26.3423C23.6066 26.3883 23.607 26.3694 23.6335 26.3201C23.6649 26.2615 23.7172 26.1892 23.7913 26.1241L24.7813 27.251L25.7713 28.3779C26.2231 27.9809 26.4177 27.4958 26.5208 27.1024C26.613 26.75 26.6652 26.3274 26.7141 25.9511L25.2266 25.7578ZM24.7813 27.251L23.7913 26.124C23.8655 26.0589 23.9441 26.0163 24.0063 25.9927C24.0586 25.9728 24.0774 25.9748 24.0303 25.9808C23.9817 25.987 23.9002 25.9931 23.7604 25.9965C23.621 25.9999 23.4576 26 23.2432 26V27.5V29C23.6225 29 24.0483 29.0028 24.4096 28.9567C24.8129 28.9053 25.3193 28.775 25.7713 28.3779L24.7813 27.251ZM23.2432 27.5V26H20.2569V27.5V29H23.2432V27.5ZM20.2569 27.5V26C20.0426 26 19.8792 25.9999 19.7398 25.9965C19.6 25.9931 19.5186 25.987 19.4699 25.9808C19.4227 25.9748 19.4415 25.9727 19.4938 25.9926C19.5559 26.0162 19.6344 26.0588 19.7086 26.1239L18.7188 27.251L17.729 28.378C18.181 28.775 18.6873 28.9053 19.0906 28.9567C19.4518 29.0027 19.8776 29 20.2569 29V27.5ZM18.7188 27.251L19.7087 26.124C19.7829 26.1892 19.8353 26.2617 19.8667 26.3202C19.8932 26.3696 19.8936 26.3884 19.8816 26.3424C19.8692 26.2949 19.8526 26.2149 19.8312 26.0767C19.8098 25.9388 19.7886 25.7768 19.761 25.5642L18.2735 25.7578L16.786 25.9514C16.835 26.3274 16.8872 26.75 16.9794 27.1022C17.0824 27.4955 17.2768 27.9809 17.729 28.378L18.7188 27.251ZM18.2735 25.7578L19.7609 25.5635L19.713 25.1973L18.2256 25.3916L16.7383 25.5859L16.7861 25.9522L18.2735 25.7578ZM18.2256 25.3916L19.7131 25.198C19.6288 24.55 19.5474 23.8938 19.4024 23.3835C19.2504 22.8483 18.9285 22.1006 18.0968 21.7092L17.4581 23.0664L16.8193 24.4236C16.6766 24.3564 16.5741 24.2541 16.5183 24.1713C16.4771 24.1103 16.4864 24.097 16.5166 24.2031C16.5459 24.3063 16.5787 24.4627 16.6171 24.7061C16.655 24.9472 16.692 25.2305 16.7382 25.5852L18.2256 25.3916ZM17.4581 23.0664L18.0966 21.7091C17.2652 21.3179 16.484 21.5461 15.9745 21.7701C15.4886 21.9837 14.931 22.3393 14.3777 22.6876L15.1768 23.957L15.976 25.2264C16.2786 25.0359 16.5204 24.8838 16.7304 24.7594C16.9423 24.6339 17.0837 24.5596 17.1819 24.5164C17.2828 24.472 17.2785 24.4877 17.2054 24.4948C17.1061 24.5045 16.9621 24.4908 16.8195 24.4237L17.4581 23.0664ZM15.1768 23.957L14.3776 22.6877L12.9382 23.5939L13.7374 24.8633L14.5365 26.1327L15.976 25.2264L15.1768 23.957ZM13.7374 24.8633L12.9382 23.5939C12.7915 23.6862 12.6816 23.7554 12.5862 23.8126C12.491 23.8698 12.4355 23.8997 12.4028 23.9156C12.3715 23.9307 12.3854 23.921 12.4307 23.9093C12.4832 23.8959 12.5556 23.8855 12.6377 23.8893L12.5684 25.3877L12.4991 26.8861C12.9959 26.9091 13.4025 26.7647 13.7106 26.6155C13.9848 26.4827 14.2803 26.294 14.5365 26.1327L13.7374 24.8633ZM12.5684 25.3877L12.6387 23.8893C12.7202 23.8932 12.7908 23.9101 12.8414 23.9282C12.8853 23.9438 12.8981 23.9547 12.8685 23.9369C12.8375 23.9181 12.7852 23.8834 12.6959 23.8178C12.6067 23.7523 12.5037 23.6732 12.3667 23.5678L11.4522 24.7568L10.5378 25.9459C10.779 26.1314 11.0558 26.3467 11.3176 26.5048C11.6113 26.6823 12.0024 26.8628 12.4982 26.886L12.5684 25.3877ZM11.4522 24.7568L12.3667 23.5678L10.4761 22.1137L9.56158 23.3027L8.64711 24.4917L10.5377 25.9458L11.4522 24.7568ZM9.56158 23.3027L10.476 22.1137C10.3189 21.9928 10.1968 21.8988 10.094 21.8164C9.99074 21.7336 9.92856 21.6797 9.88981 21.6429C9.80857 21.5658 9.91938 21.6454 9.98113 21.8502L8.54498 22.2832L7.10883 22.7162C7.26342 23.2289 7.57439 23.5813 7.82417 23.8185C8.05942 24.0419 8.36377 24.2738 8.64714 24.4918L9.56158 23.3027ZM8.54498 22.2832L9.98121 21.8505C10.0037 21.9251 10.0089 22.0077 9.99262 22.0909L8.52057 21.8027L7.04852 21.5145C6.96966 21.9173 6.99234 22.3295 7.10875 22.7159L8.54498 22.2832ZM8.52057 21.8027L9.99251 22.0915C9.95103 22.3029 9.84765 22.3936 9.92178 22.308C9.95697 22.2673 10.0138 22.2073 10.1087 22.1145C10.2033 22.022 10.3155 21.9163 10.4603 21.7802L9.43268 20.6875L8.40509 19.5948C8.14521 19.8392 7.86501 20.1001 7.65306 20.3451C7.42823 20.6049 7.15203 20.9869 7.04863 21.514L8.52057 21.8027ZM9.43268 20.6875L10.4603 21.7802C10.9366 21.3323 11.3849 20.9135 11.6999 20.5468C11.9866 20.2132 12.4448 19.6168 12.4335 18.8082L10.9337 18.8291L9.4338 18.85C9.43113 18.6577 9.48785 18.528 9.50759 18.4894C9.52138 18.4625 9.51131 18.4907 9.42464 18.5916C9.2389 18.8077 8.93357 19.0978 8.40509 19.5948L9.43268 20.6875ZM10.9337 18.8291L12.4335 18.8075C12.4256 18.2626 12.24 17.7342 11.9036 17.3039L10.7217 18.2275L9.53987 19.1512C9.47229 19.0647 9.43537 18.9592 9.43381 18.8507L10.9337 18.8291ZM10.7217 18.2275L11.9033 17.3035C11.4047 16.6659 10.6729 16.4888 10.2404 16.4089C9.76488 16.3211 9.15278 16.2761 8.50058 16.2261L8.3858 17.7217L8.27102 19.2173C8.99473 19.2728 9.41479 19.3072 9.69534 19.359C9.82626 19.3832 9.85189 19.3989 9.82423 19.3866C9.78465 19.3689 9.65881 19.3033 9.54014 19.1516L10.7217 18.2275ZM8.3858 17.7217L8.50106 16.2261L7.462 16.146L7.34674 17.6416L7.23148 19.1372L8.27054 19.2172L8.3858 17.7217ZM7.34674 17.6416L7.46152 16.146C7.23724 16.1288 7.06568 16.1155 6.91952 16.1006C6.7728 16.0857 6.68699 16.0725 6.63553 16.0617C6.58532 16.0512 6.60446 16.0503 6.65678 16.0756C6.71937 16.1059 6.79712 16.158 6.86716 16.2337L5.76666 17.2529L4.66617 18.2722C5.09264 18.7327 5.60815 18.9117 6.0206 18.998C6.39083 19.0756 6.83423 19.1067 7.23196 19.1372L7.34674 17.6416ZM5.76666 17.2529L6.8673 16.2338C6.93734 16.3095 6.9833 16.391 7.00871 16.4556C7.02996 16.5097 7.02754 16.5286 7.02089 16.4777C7.01408 16.4255 7.00747 16.3389 7.00381 16.1914C7.00018 16.0445 7.00006 15.8724 7.00006 15.6475H5.50006H4.00006C4.00006 16.0465 3.99716 16.4909 4.04613 16.866C4.10068 17.2838 4.23964 17.8116 4.66603 18.272L5.76666 17.2529ZM5.50006 15.6475H7.00006V14.3516H5.50006H4.00006V15.6475H5.50006ZM5.50006 14.3516H7.00006C7.00006 14.1267 7.00018 13.9546 7.00382 13.8078C7.00748 13.6603 7.01409 13.5737 7.02091 13.5214C7.02757 13.4704 7.03 13.4893 7.0088 13.5433C6.98343 13.6078 6.93748 13.6894 6.8673 13.7652L5.76666 12.7461L4.66602 11.727C4.23954 12.1876 4.10067 12.7155 4.04615 13.1331C3.99718 13.5082 4.00006 13.9527 4.00006 14.3516H5.50006ZM5.76666 12.7461L6.86656 13.766C6.79632 13.8418 6.71853 13.8937 6.65622 13.9239C6.60416 13.9491 6.58529 13.9481 6.63573 13.9375C6.68738 13.9267 6.77334 13.9134 6.92007 13.8985C7.06625 13.8836 7.2378 13.8703 7.46195 13.853L7.34674 12.3574L7.23153 10.8619C6.83394 10.8925 6.39078 10.9237 6.02074 11.0012C5.60895 11.0875 5.09337 11.2661 4.66676 11.7262L5.76666 12.7461ZM7.34674 12.3574L7.46179 13.853L8.5028 13.7729L8.38776 12.2773L8.27271 10.7818L7.2317 10.8618L7.34674 12.3574ZM8.38776 12.2773L8.50297 13.7729C9.15459 13.7227 9.76624 13.6777 10.2413 13.5898C10.6736 13.5099 11.4048 13.3328 11.9032 12.6957L10.7217 11.7715L9.54029 10.8473C9.65886 10.6957 9.7846 10.6301 9.82431 10.6124C9.85205 10.6 9.82657 10.6157 9.69581 10.6399C9.41553 10.6917 8.99594 10.726 8.27255 10.7818L8.38776 12.2773ZM10.7217 11.7715L11.9032 12.6956C12.2411 12.2637 12.4259 11.7341 12.4335 11.1898L10.9337 11.1689L9.4338 11.1481C9.43529 11.0409 9.47166 10.935 9.54023 10.8473L10.7217 11.7715ZM10.9337 11.1689L12.4335 11.1887C12.4442 10.3806 11.986 9.78457 11.6994 9.45126C11.3844 9.08487 10.9363 8.66635 10.4601 8.21866L9.43268 9.31152L8.40523 10.4044C8.93353 10.9011 9.23883 11.191 9.42463 11.4071C9.51133 11.5079 9.52148 11.5363 9.50773 11.5094C9.48805 11.471 9.43125 11.3414 9.43379 11.1492L10.9337 11.1689ZM9.43268 9.31152L10.4601 8.21866C10.3155 8.08273 10.2034 7.97723 10.1089 7.88487C10.0142 7.79222 9.95742 7.73236 9.9223 7.69179C9.84841 7.60645 9.95156 7.69698 9.99318 7.90789L8.52155 8.19824L7.04991 8.48859C7.15372 9.0147 7.42955 9.39591 7.65423 9.65543C7.86592 9.89993 8.14576 10.1604 8.40523 10.4044L9.43268 9.31152ZM8.52155 8.19824L9.99337 7.90886C10.0086 7.98642 10.0054 8.06837 9.98111 8.14887L8.54498 7.71582L7.10885 7.28277C6.99038 7.67566 6.97153 8.0899 7.04972 8.48762L8.52155 8.19824ZM8.54498 7.71582L9.98101 8.14923C9.91858 8.35605 9.80629 8.43633 9.8888 8.35822C9.92793 8.32119 9.99047 8.26711 10.0942 8.1841C10.1976 8.10133 10.3197 8.0073 10.4773 7.88608L9.56256 6.69727L8.64784 5.50845C8.36578 5.72548 8.06129 5.95724 7.82651 6.17947C7.57741 6.41526 7.26426 6.76787 7.10896 7.28241L8.54498 7.71582ZM9.56256 6.69727L10.4773 7.88604L12.367 6.43194L11.4522 5.24316L10.5374 4.05439L8.64779 5.50849L9.56256 6.69727ZM11.4522 5.24316L12.3669 6.43198C12.5041 6.32642 12.6072 6.24722 12.6966 6.18145C12.786 6.11569 12.8385 6.08076 12.8696 6.0619C12.8994 6.04391 12.8866 6.05483 12.8427 6.07057C12.792 6.08875 12.721 6.10581 12.639 6.10967L12.5684 4.61133L12.4979 3.11299C12.0011 3.13637 11.6096 3.31785 11.3164 3.49533C11.055 3.65351 10.7782 3.86911 10.5375 4.05435L11.4522 5.24316ZM12.5684 4.61133L12.6381 6.10971C12.5565 6.11351 12.4845 6.10325 12.4322 6.0899C12.3869 6.07834 12.373 6.06863 12.4041 6.08365C12.4368 6.09941 12.4921 6.12915 12.5871 6.18611C12.6821 6.24308 12.792 6.31215 12.9384 6.40426L13.7374 5.13477L14.5364 3.86527C14.2796 3.70365 13.9841 3.51521 13.7093 3.38244C13.4007 3.23332 12.9946 3.08989 12.4987 3.11295L12.5684 4.61133ZM13.7374 5.13477L12.9382 6.40414L14.3776 7.31039L15.1768 6.04102L15.976 4.77164L14.5365 3.86539L13.7374 5.13477ZM15.1768 6.04102L14.3778 7.31051C14.9307 7.65849 15.4882 8.0141 15.9736 8.22784C16.4822 8.45177 17.2639 8.68135 18.0962 8.29012L17.4581 6.93262L16.82 5.57511C16.9632 5.50778 17.1076 5.4943 17.2067 5.50403C17.2797 5.5112 17.2838 5.52679 17.1826 5.48222C17.0842 5.4389 16.9426 5.36438 16.7305 5.2387C16.5204 5.11417 16.2785 4.96205 15.9758 4.77152L15.1768 6.04102ZM17.4581 6.93262L18.0967 8.28987C18.929 7.89823 19.2507 7.14957 19.4025 6.61477C19.5473 6.10439 19.6287 5.44804 19.7131 4.80008L18.2256 4.60645L16.7382 4.41281C16.692 4.76756 16.655 5.05093 16.617 5.29222C16.5787 5.53574 16.5458 5.69232 16.5165 5.79571C16.4863 5.90207 16.4769 5.88891 16.518 5.82801C16.5737 5.74536 16.6763 5.64273 16.8194 5.57536L17.4581 6.93262ZM18.2256 4.60645L19.7129 4.80182L19.7607 4.43756L18.2735 4.24219L16.7863 4.04682L16.7384 4.41107L18.2256 4.60645ZM18.2735 4.24219L19.7609 4.43583C19.7886 4.22323 19.8098 4.06125 19.8312 3.92338C19.8526 3.7851 19.8692 3.70505 19.8816 3.6576C19.8937 3.61152 19.8932 3.63036 19.8668 3.67971C19.8353 3.73829 19.783 3.8108 19.7086 3.87607L18.7188 2.74902L17.729 1.62198C17.2768 2.01914 17.0823 2.50464 16.9794 2.89781C16.8872 3.24998 16.835 3.67258 16.786 4.04855L18.2735 4.24219ZM18.7188 2.74902L19.7086 3.87611C19.6344 3.94128 19.5558 3.98381 19.4938 4.0074C19.4415 4.02727 19.4228 4.02526 19.47 4.01924C19.5186 4.01304 19.6001 4.00691 19.7399 4.0035C19.8793 4.00012 20.0426 4 20.2569 4V2.5V1C19.8776 1 19.4518 0.99727 19.0906 1.04333C18.6873 1.09474 18.181 1.225 17.729 1.62194L18.7188 2.74902ZM20.2569 2.5V4H23.2432V2.5V1H20.2569V2.5ZM21.7501 10V8.5C19.6529 8.5 17.6996 9.15222 16.2393 10.2755C14.7774 11.4001 13.7501 13.0575 13.7501 15H15.2501H16.7501C16.7501 14.1811 17.1778 13.3385 18.0684 12.6534C18.9607 11.9671 20.2573 11.5 21.7501 11.5V10ZM15.2501 15H13.7501C13.7501 16.9425 14.7774 18.5999 16.2393 19.7245C17.6996 20.8478 19.6529 21.5 21.7501 21.5V20V18.5C20.2573 18.5 18.9607 18.0329 18.0684 17.3466C17.1778 16.6615 16.7501 15.8189 16.7501 15H15.2501ZM21.7501 20V21.5C23.8472 21.5 25.8005 20.8478 27.2608 19.7245C28.7227 18.5999 29.7501 16.9425 29.7501 15H28.2501H26.7501C26.7501 15.8189 26.3223 16.6615 25.4317 17.3466C24.5395 18.0329 23.2428 18.5 21.7501 18.5V20ZM28.2501 15H29.7501C29.7501 13.0575 28.7227 11.4001 27.2608 10.2755C25.8005 9.15222 23.8472 8.5 21.7501 8.5V10V11.5C23.2428 11.5 24.5395 11.9671 25.4317 12.6534C26.3223 13.3385 26.7501 14.1811 26.7501 15H28.2501Z" fill="#CCCCCC"/>
</g>
<defs>
<filter id="filter0_d_4_6" x="0" y="0.999969" width="43.5001" height="36.0001" filterUnits="userSpaceOnUse" color-interpolation-filters="sRGB">
<feFlood flood-opacity="0" result="BackgroundImageFix"/>
<feColorMatrix in="SourceAlpha" type="matrix" values="0 0 0 0 0 0 0 0 0 0 0 0 0 0 0 0 0 0 127 0" result="hardAlpha"/>
<feOffset dy="4"/>
<feGaussianBlur stdDeviation="2"/>
<feComposite in2="hardAlpha" operator="out"/>
<feColorMatrix type="matrix" values="0 0 0 0 0 0 0 0 0 0 0 0 0 0 0 0 0 0 0.25 0"/>
<feBlend mode="normal" in2="BackgroundImageFix" result="effect1_dropShadow_4_6"/>
<feBlend mode="normal" in="SourceGraphic" in2="effect1_dropShadow_4_6" result="shape"/>
</filter>
</defs>
</svg>
