<svg width="56" height="39" viewBox="0 0 56 39" fill="none" xmlns="http://www.w3.org/2000/svg">
<g filter="url(#filter0_d_4_18)">
<path d="M11.9578 11.0526L11.9578 22.1053" stroke="#CCCCCC" stroke-width="4" stroke-linejoin="round"/>
<path d="M12.1246 2.91276L19.6478 9.65695C20.1943 10.1469 19.8478 11.0526 19.1138 11.0526L4.80161 11.0526C4.06765 11.0526 3.7211 10.1469 4.26761 9.65695L11.7908 2.91276C11.8858 2.82763 12.0296 2.82762 12.1246 2.91276Z" fill="#CCCCCC"/>
<path d="M12.1246 30.2451L19.6478 23.5009C20.1943 23.011 19.8478 22.1053 19.1138 22.1053L4.80161 22.1053C4.06765 22.1053 3.7211 23.011 4.26761 23.5009L11.7908 30.2451C11.8858 30.3303 12.0296 30.3303 12.1246 30.2451Z" fill="#CCCCCC"/>
<path d="M25.8282 9.67105H44.3222" stroke="#CCCCCC" stroke-width="3" stroke-linecap="round"/>
<path d="M25.8282 16.5789H44.3222" stroke="#CCCCCC" stroke-width="3" stroke-linecap="round"/>
<path d="M25.8282 23.4868H44.3222" stroke="#CCCCCC" stroke-width="3" stroke-linecap="round"/>
</g>
<defs>
<filter id="filter0_d_4_18" x="-3.60101" y="0" width="63.482" height="41.1579" filterUnits="userSpaceOnUse" color-interpolation-filters="sRGB">
<feFlood flood-opacity="0" result="BackgroundImageFix"/>
<feColorMatrix in="SourceAlpha" type="matrix" values="0 0 0 0 0 0 0 0 0 0 0 0 0 0 0 0 0 0 127 0" result="hardAlpha"/>
<feOffset dy="4"/>
<feGaussianBlur stdDeviation="2"/>
<feComposite in2="hardAlpha" operator="out"/>
<feColorMatrix type="matrix" values="0 0 0 0 0 0 0 0 0 0 0 0 0 0 0 0 0 0 0.25 0"/>
<feBlend mode="normal" in2="BackgroundImageFix" result="effect1_dropShadow_4_18"/>
<feBlend mode="normal" in="SourceGraphic" in2="effect1_dropShadow_4_18" result="shape"/>
</filter>
</defs>
</svg>
